# xmcd
#
# Track frame offsets:
#	150
#	17964
#	33435
#	45803
#	60728
#	74269
#	90568
#	105635
#	118409
#	133864
#	149738
#	162289
#
# Disc length: 2344 seconds
#
# Revision: 0
# Processed by: cddbd v1.5.2PL0 Copyright (c) Steve Scherf et al.
# Submitted via: dBpowerAMP V4.0
#
DISCID=ac09260c
DTITLE=Banda Rota 3 - Taça de Vinho
DYEAR=2006
DGENRE=Country
TTITLE0=Mil Razões Para Chorar
TTITLE1=Taça de Vinho
TTITLE2=Faz Amor Comigo
TTITLE3=Foi Só Você
TTITLE4=Vai
TTITLE5=Tudo Bem
TTITLE6=Melhor Pra Mim
TTITLE7=Noites Tão Vazias
TTITLE8=Recomeço
TTITLE9=Batendo a Sua Porta
TTITLE10=Tudo Acabou
TTITLE11=Vai (Remix)
EXTD=Ripado By Simon Energia FM Santa Catarina
EXTT0=
EXTT1=
EXTT2=
EXTT3=
EXTT4=
EXTT5=
EXTT6=
EXTT7=
EXTT8=
EXTT9=
EXTT10=
EXTT11=
PLAYORDER=
